<svg xmlns="http://www.w3.org/2000/svg" xmlns:xlink="http://www.w3.org/1999/xlink" width="1500" height="1500" viewBox="0 0 1500 1500">
  <defs>
    <clipPath id="clip-undraw_career_progress_ivdb">
      <rect width="1500" height="1500"/>
    </clipPath>
  </defs>
  <g id="undraw_career_progress_ivdb" clip-path="url(#clip-undraw_career_progress_ivdb)">
    <rect width="1500" height="1500" fill="#fff"/>
    <g id="undraw_career_progress_ivdb-2" data-name="undraw_career_progress_ivdb">
      <rect id="Rectangle_222" data-name="Rectangle 222" width="168.443" height="50.921" rx="7.43" transform="translate(244.715 653.368)" fill="#ff8e28" opacity="0.1"/>
      <rect id="Rectangle_223" data-name="Rectangle 223" width="168.443" height="50.921" rx="7.43" transform="translate(420.991 704.302)" fill="#ff8e28" opacity="0.1"/>
      <rect id="Rectangle_224" data-name="Rectangle 224" width="168.443" height="50.921" rx="7.43" transform="translate(597.281 755.223)" fill="#ff8e28" opacity="0.1"/>
      <rect id="Rectangle_225" data-name="Rectangle 225" width="168.443" height="50.921" rx="7.43" transform="translate(244.715 576.987)" fill="#ff8e28" opacity="0.1"/>
      <rect id="Rectangle_226" data-name="Rectangle 226" width="168.443" height="50.921" rx="7.43" transform="translate(420.991 627.908)" fill="#ff8e28" opacity="0.1"/>
      <rect id="Rectangle_227" data-name="Rectangle 227" width="168.443" height="50.921" rx="7.43" transform="translate(597.281 678.842)" fill="#ff8e28" opacity="0.1"/>
      <rect id="Rectangle_228" data-name="Rectangle 228" width="168.443" height="50.921" rx="7.43" transform="translate(793.144 653.368)" fill="#ff8e28" opacity="0.1"/>
      <rect id="Rectangle_231" data-name="Rectangle 231" width="168.443" height="50.921" rx="7.43" transform="translate(793.144 576.987)" fill="#ff8e28" opacity="0.1"/>
      <rect id="Rectangle_232" data-name="Rectangle 232" width="168.443" height="50.921" rx="7.43" transform="translate(969.42 627.908)" fill="#ff8e28" opacity="0.1"/>
      <rect id="Rectangle_233" data-name="Rectangle 233" width="168.443" height="50.921" rx="7.43" transform="translate(1145.71 678.842)" fill="#ff8e28" opacity="0.1"/>
      <rect id="Rectangle_234" data-name="Rectangle 234" width="168.443" height="50.921" rx="7.43" transform="translate(244.715 475.133)" fill="#ff8e28" opacity="0.1"/>
      <rect id="Rectangle_235" data-name="Rectangle 235" width="168.443" height="50.921" rx="7.43" transform="translate(420.991 526.053)" fill="#ff8e28" opacity="0.1"/>
      <rect id="Rectangle_236" data-name="Rectangle 236" width="168.443" height="50.921" rx="7.43" transform="translate(597.281 576.987)" fill="#ff8e28" opacity="0.1"/>
      <rect id="Rectangle_237" data-name="Rectangle 237" width="168.443" height="50.921" rx="7.43" transform="translate(244.715 398.738)" fill="#ff8e28" opacity="0.1"/>
      <rect id="Rectangle_238" data-name="Rectangle 238" width="168.443" height="50.921" rx="7.43" transform="translate(420.991 449.672)" fill="#ff8e28" opacity="0.1"/>
      <rect id="Rectangle_239" data-name="Rectangle 239" width="168.443" height="50.921" rx="7.43" transform="translate(597.281 500.594)" fill="#ff8e28" opacity="0.1"/>
      <rect id="Rectangle_240" data-name="Rectangle 240" width="168.443" height="50.921" rx="7.43" transform="translate(793.144 475.133)" fill="#ff8e28" opacity="0.1"/>
      <rect id="Rectangle_241" data-name="Rectangle 241" width="168.443" height="50.921" rx="7.43" transform="translate(969.42 526.053)" fill="#ff8e28" opacity="0.1"/>
      <rect id="Rectangle_242" data-name="Rectangle 242" width="168.443" height="50.921" rx="7.43" transform="translate(1145.71 576.987)" fill="#ff8e28" opacity="0.1"/>
      <rect id="Rectangle_243" data-name="Rectangle 243" width="168.443" height="50.921" rx="7.43" transform="translate(793.144 398.738)" fill="#ff8e28" opacity="0.1"/>
      <rect id="Rectangle_244" data-name="Rectangle 244" width="168.443" height="50.921" rx="7.43" transform="translate(969.42 449.672)" fill="#ff8e28" opacity="0.1"/>
      <rect id="Rectangle_245" data-name="Rectangle 245" width="168.443" height="50.921" rx="7.43" transform="translate(1145.71 500.594)" fill="#ff8e28" opacity="0.1"/>
      <ellipse id="Ellipse_249" data-name="Ellipse 249" cx="705" cy="128" rx="705" ry="128" transform="translate(45 984)" fill="#f8eee7"/>
      <path id="Path_1094" data-name="Path 1094" d="M253.27,321.144,194,684.5l268-28.347-11.6-30.924L241.03,642.62,289.992,320.5Z" transform="translate(100.965 353.457)" fill="#e8cfbe"/>
      <path id="Path_1095" data-name="Path 1095" d="M186,1.288,546.775,0,651.141,789.839,289.078,838.8Z" transform="translate(98.657 261)" fill="#e8cfbe"/>
      <path id="Path_1096" data-name="Path 1096" d="M216.5,24.5H507.7l101.79,734.434L309.271,800.165Z" transform="translate(107.456 268.068)" fill="#fff"/>
      <path id="Path_1097" data-name="Path 1097" d="M492.659,640.758c1.83,3.5,3.2,7.293,5.579,10.45,6.958,9.3,20.165,10.759,30.073,16.828a2.77,2.77,0,0,1,1.173,1.134c.451,1.07-.554,2.191-1.52,2.86-7.512,5.27-17.369,5.386-26.556,5.321a35.426,35.426,0,0,1-9.187-.876c-4.858-1.289-9.019-4.677-13.812-6.056a36.642,36.642,0,0,0-7.589-1.069l-10.063-.683a23.717,23.717,0,0,1-7.847-1.456,7.937,7.937,0,0,1-4.948-5.863c-.283-2.139.631-4.213,1.173-6.3,1.288-4.948.889-10.926,4.742-14.3a14.624,14.624,0,0,1,5.347-2.577,170.573,170.573,0,0,1,21.4-5.695C486.591,631.3,490.018,635.681,492.659,640.758Z" transform="translate(105.924 353.207)"/>
      <path id="Path_1098" data-name="Path 1098" d="M402.766,668.284c.258,2.744.335,5.888-1.649,7.808a8.8,8.8,0,0,1-4.316,1.933c-9.522,2.216-20.139,2.371-28.424-2.809a7.848,7.848,0,0,1-2.242-1.92A7,7,0,0,1,365,669.753c-.3-3.646.825-7.241,1.843-10.759a188.8,188.8,0,0,0,5.476-25.448c.1-.709,24.314,3.865,25.924,6.262,2.023,2.964,2.036,10.076,2.577,13.606Q402.045,660.811,402.766,668.284Z" transform="translate(81.992 353.551)"/>
      <path id="Path_1099" data-name="Path 1099" d="M495.878,409.611l6.442,59.9c1.289,12.241,2.641,24.546,1.752,36.825-1.031,14.173-5,28.347-3.324,42.391.657,5.463,2.152,10.823,2.371,16.325a88.925,88.925,0,0,1-.554,10.952c-2.912,36.348,6.3,72.413,11.455,108.5a47.076,47.076,0,0,1,.541,13.5c-.67,4.574-2.01,10.579,2.062,12.743L478.38,724.619c-4.883-6.12-1.649-15.642-2.577-23.412-.85-7-4.69-13.233-6.739-19.971-1.855-6.056-2.242-12.434-2.848-18.722-3.337-34.235-13.581-67.581-15.977-101.893a46.384,46.384,0,0,0-1.288-9.831c-1.289-4.265-3.866-7.989-5.747-12-2.886-6.017-4.3-12.614-5.7-19.134l-8.182-38.332c-8.272,12.318-7.937,28.347-9.573,43.113-2.294,20.616-7.422,40.884-11.6,61.241a121.718,121.718,0,0,0-2.177,13.271c-1.082,11.944,1.069,24-.077,35.936-1.288,13.825-7.1,27.316-5.7,41.141.773,7.654,3.711,14.895,5.7,22.317s2.964,15.565-.064,22.639a69.578,69.578,0,0,0-33.127-3.659c-12.279-12.563-14.457-30.086-15.294-47.674s1.185-35.2-1.005-52.622c-.644-5.154-1.649-10.179-1.817-15.32-.541-16.48,7.383-31.9,11.326-47.919a101.4,101.4,0,0,0,.992-44c-1.933-9.625-5.257-18.966-6.442-28.72-1.611-13.671,1.121-27.445,3.865-40.948,1.843-9.11,3.672-18.219,5.76-27.277,2.242-9.728,4.909-19.662,10.9-27.625,9.586-12.743,26.607-18.4,42.52-17.163s30.769,8.478,43.911,17.5a165.542,165.542,0,0,1,28.45,24.056Z" transform="translate(78.997 276.936)" fill="#3c7745"/>
      <path id="Path_1100" data-name="Path 1100" d="M441.891,227.428a11.12,11.12,0,0,0-1.482,3.788c-.322,2.641,1.288,5.064,2.577,7.37a40.136,40.136,0,0,1,3.775,9.406,15.459,15.459,0,0,1,.554,6.275,15.14,15.14,0,0,1-1.675,4.51C443.154,263.57,439.469,268,434.456,270a19.7,19.7,0,0,1-12.1.49,36.734,36.734,0,0,1-11.068-5.257,33.643,33.643,0,0,1-7.576-6.571,45.417,45.417,0,0,1-5.231-9.019c-2.68-5.6-5.4-11.6-4.909-17.742a5.928,5.928,0,0,1,.309-1.636,8.8,8.8,0,0,1,1.726-2.577,33.63,33.63,0,0,0,7.886-23.386l18.773,4.265c4.136.941,8.272,1.881,12.357,3.054,3.35.966,8.5,2.306,10.682,5.3S443.373,224.7,441.891,227.428Z" transform="translate(90.232 229.742)" fill="#c95636"/>
      <circle id="Ellipse_250" data-name="Ellipse 250" cx="34.119" cy="34.119" r="34.119" transform="translate(487.954 385.738)" fill="#c95636"/>
      <path id="Path_1101" data-name="Path 1101" d="M430.236,251.769c1.443-3.157,4.561-5.154,7.409-7.138s5.734-4.523,6.288-7.963a5.707,5.707,0,0,1,.567-2.242c1.1-1.649,3.7-.825,5.257.387,3.788,2.951,6.365,7.138,8.878,11.223a95.9,95.9,0,0,1,8.311,15.707c3.621,9.548,4.059,19.971,4.458,30.163.361,9.277.709,18.7-1.546,27.689-1.417,5.7-3.865,11.223-4.007,17.085-.425,21.3-7.821,41.657-8.336,62.955a163.317,163.317,0,0,0,.928,18.438l1.211,13.825q-28.1-1.611-56.049-4.935c-.541-6.365-2.358-12.537-4.02-18.7a405.778,405.778,0,0,1-13.027-76.974c-.992-13.813-2.01-27.574-3.543-41.335-1.379-12.511-4.085-25.1-2.461-37.585a51.888,51.888,0,0,1,5.283-16.261,10.72,10.72,0,0,1,4.123-4.935,11.144,11.144,0,0,1,2.912-.941,54.035,54.035,0,0,1,8.865-1.044,6.108,6.108,0,0,1,2.165.206,6.79,6.79,0,0,1,2.951,2.86A53.5,53.5,0,0,0,430.236,251.769Z" transform="translate(86.348 236.918)" fill="#b4631c"/>
      <path id="Path_1102" data-name="Path 1102" d="M406.72,245.188c2.4,3.427,7.473,4.239,9.689,7.731a20.267,20.267,0,0,1,1.688,4.6c1.353,4.316,4.085,8.066,5.747,12.279,2.4,6.056,2.461,12.756,2.487,19.263a63.74,63.74,0,0,1-1.185,15.462c-.773,3.183-2.036,6.211-2.964,9.354a45.74,45.74,0,0,0-1.727,16.493,6.751,6.751,0,0,0,.927,3.413,7.409,7.409,0,0,0,3.3,2.243c3.775,1.662,7.731,3.363,11.854,2.976a4.343,4.343,0,0,0,2.358-.786,5.243,5.243,0,0,0,1.16-1.533l2.577-4.355c2.332-3.981,4.767-8.44,3.865-12.988a25.769,25.769,0,0,0-2.925-6.661,78.306,78.306,0,0,1-4.2-10.4c-4.11-11.815-8.272-23.8-9.2-36.271a31.877,31.877,0,0,1,1.546-14.07,40.07,40.07,0,0,1,4.535-7.847,3.363,3.363,0,0,0-3.621-1.224,21.544,21.544,0,0,0-3.75,1.559c-3.788,1.6-7.989,1.018-11.815-.077-1.495-.438-3.865-1.933-5.412-1.83C411.127,242.586,406.81,245.343,406.72,245.188Z" transform="translate(94.041 240.768)" fill="#ff8e28"/>
      <path id="Path_1103" data-name="Path 1103" d="M433.01,248.908c-.773-.618-1.971-1.185-2.654-.464a2.988,2.988,0,0,0-.49,1.044c-.67,1.8-2.641,2.693-4.432,3.389s-3.724,1.082-4.806-.245a2.912,2.912,0,0,1,.167-3.44,10.515,10.515,0,0,1,2.822-2.384,27.548,27.548,0,0,0,11.236-17.678,8.4,8.4,0,0,1,3.08,5.321c.425,2.049.477,4.162.9,6.21.631,2.938,2.036,5.682,2.358,8.659a45.266,45.266,0,0,1,0,4.767,29.266,29.266,0,0,0,.541,4.613C438.718,255.505,436.592,251.756,433.01,248.908Z" transform="translate(97.914 236.906)" fill="#b4631c"/>
      <path id="Path_1104" data-name="Path 1104" d="M414.33,242.932c-1.289-1.224-2.577-2.384-3.865-3.634A50.122,50.122,0,0,1,398,219.52c-1.649,1.288-3.466,2.989-3.5,5.154a7.9,7.9,0,0,0,1.7,4.188,65.3,65.3,0,0,1,9.445,25.267,7.525,7.525,0,0,1,6.507-3.466c2.036,0,11.171,5.412,11.828,4.046C424.947,252.57,415.876,244.388,414.33,242.932Z" transform="translate(90.516 234.133)" fill="#b4631c"/>
      <path id="Path_1105" data-name="Path 1105" d="M460.253,232.075A106.944,106.944,0,0,0,503.52,258.27a9.715,9.715,0,0,1,4.368,2.216,8.929,8.929,0,0,1,1.817,3.994c3.144,12.292,4.2,25.009,5.244,37.649a20.979,20.979,0,0,1-.129,6.288c-.76,3.376-3.157,6.107-5.515,8.646-7.4,7.924-15.835,16.209-17.085,26.981a43.11,43.11,0,0,1-.734,6.185c-.644,2.4-2.074,4.51-2.951,6.842-4.3,11.48,5.424,25.383-.5,36.077a65.119,65.119,0,0,1,6.52,19.662,25.588,25.588,0,0,0,1.765,7.576c1.765,3.685,5.4,6.03,8.259,9.019,8.723,8.942,9.792,22.626,10.308,35.111.322,7.035.219,15.114-5.154,19.727-3.105,2.693-7.344,3.569-11.4,4.239-5.4.9-11.274,1.546-16.054-1.121-3.427-1.907-5.76-5.244-7.989-8.465-4.226-6.146-8.465-12.279-12.472-18.58-6.339-9.934-12.318-21.286-10.488-32.934-.515,11.918-3.028,23.927-8.878,34.312s-15.268,19.057-26.7,22.484-24.79,1.005-33.307-7.344a45.016,45.016,0,0,1-7.1-9.573,93.441,93.441,0,0,1-10.488-26.684c-.554-2.435-.966-5.154.258-7.331.58-1.031,1.469-1.843,2.074-2.86,2.036-3.466.077-7.834-1.894-11.364-3,.283-5.154-3.247-4.883-6.262s2.074-5.631,3.35-8.375c3.737-8.092,2.912-17.51,1.108-26.233s-4.5-17.395-4.291-26.3c.219-9.419-6.558-17.9-11.725-25.77-2.886-4.432-6.249-8.556-8.762-13.207a42.61,42.61,0,0,1-3.376-31.9,83.613,83.613,0,0,1,7.061-15.745l4.252-7.976a13.156,13.156,0,0,1,9.019-7.731l29.416-11.6a44.26,44.26,0,0,0,10.617-5.309c3.595-2.706,6.275-6.442,9.7-9.329a5.438,5.438,0,0,1,3.865-1.688c2.757.245,3.737,3.724,4.02,6.442.644,6.082,5.154,11.236,6.687,17.15,8.3,32.663,25.86,62.788,30.679,96.134,5.412-13,10.823-26.027,17.755-38.268a31.772,31.772,0,0,0,2.744-5.553,23.709,23.709,0,0,0,.915-8.62c-.348-8.388-2.577-16.583-4.78-24.687C465.806,253.168,463.229,243,460.253,232.075Z" transform="translate(73.365 234.734)" fill="#e8cfbe"/>
      <path id="Path_1106" data-name="Path 1106" d="M483.319,313.883c.567,5.489,1.121,10.991,2.139,16.415,1.185,6.275,2.989,12.408,4.78,18.541a48.256,48.256,0,0,0,3.737,9.96,12.808,12.808,0,0,1,1.379,2.951c.631,2.577-.812,5.154-1.43,7.731-1.855,7.731,3.711,16.325.206,23.45-1.057,2.165-2.9,3.956-3.595,6.275-.812,2.667,0,5.515.425,8.272,1.1,7.731-1.546,15.591-4.149,23.025l-4.432,12.55c-4.046-7.525-8.13-15.127-13.722-21.582-2-2.319-4.175-4.471-6.017-6.919A48.526,48.526,0,0,1,456.2,402a108.785,108.785,0,0,1-6.661-33.14,22.664,22.664,0,0,1,1.1-9.535,50.7,50.7,0,0,1,2.86-5.154c3.453-6.223,4.162-13.593,4.1-20.706s-.825-14.251,0-21.324a48.781,48.781,0,0,1,5.154-16.918,24,24,0,0,1,7-8.723,12.6,12.6,0,0,1,7.731-2.513c4.213.245,3.247,3.865,3.608,7.357Z" transform="translate(106.36 252.732)" fill="#e8cfbe"/>
      <path id="Path_1107" data-name="Path 1107" d="M331.782,301.127q-3.943,11.6-7.112,23.4-3.092,11.6-5.528,23.322a49.941,49.941,0,0,0-1.392,10.488,46.929,46.929,0,0,0,2.1,12.125c8.3,29.906,23.425,57.492,40.458,83.429a75.094,75.094,0,0,1,17.137-15.642,3.672,3.672,0,0,0,1.288-1.289,3.492,3.492,0,0,0-.412-3.015c-4.7-9.638-12.15-18.129-14.5-28.6-.979-4.355-1.018-8.891-2.126-13.22-1.43-5.6-4.626-10.733-5.36-16.48-.786-6.262,1.288-13.091-1.649-18.644,5.991-2.332,9.457-8.5,12-14.418a78.969,78.969,0,0,0,5.772-18.954,57.028,57.028,0,0,0-6.971-36.271,57.983,57.983,0,0,0-11.661-14.637c-1.533-1.379-5.154-5.334-7.383-5.3-2.976.064-3.93,4.883-4.78,7.048C338.224,283.307,334.822,292.159,331.782,301.127Z" transform="translate(68.375 247.951)" fill="#e8cfbe"/>
      <path id="Path_1108" data-name="Path 1108" d="M376.17,408.24c.387.283.825.67.722,1.134s-.477.58-.812.773a10,10,0,0,0-3.711,5.025,140.25,140.25,0,0,0-5.592,14.8,64.9,64.9,0,0,0-10.1-11.79c-2.938-2.706-6.223-5.27-7.8-8.929,0-.1,6.752-5.089,7.37-5.631,1.894-1.688,4.278-6.365,6.236-7.4,2.216-1.16,4.329,3.389,6.017,5.218a51.176,51.176,0,0,0,7.666,6.79Z" transform="translate(77.355 285.059)" fill="#c95636"/>
      <path id="Path_1109" data-name="Path 1109" d="M469.6,200.805c-.09-1.688-.309-3.556-1.6-4.651a6.1,6.1,0,0,0-3.865-1.069c-7.512-.245-15.281,1.018-22.368-1.508-4.664-1.662-8.646-4.858-13.194-6.842s-10.372-2.513-14.044.825c-2.783,2.577-3.543,6.533-4.51,10.179a59.682,59.682,0,0,1-11.12,22.059c-3.492-1.082-5.991-4.2-7.6-7.473-5.476-11.158-2.783-24.481,1.108-36.309,1.288-3.969,2.719-7.9,4.149-11.815l3.144-8.659a16.9,16.9,0,0,0,10.772-5.36l1.353,3.286a17.137,17.137,0,0,0,9.664-3.414c1.082,2.036,3.865,2.577,6.12,1.92s4.2-1.92,6.442-2.577c5.991-1.933,12.382,1.044,18.67,1.379a74.723,74.723,0,0,1,7.976.232c7.422,1.2,12.666,8.182,14.934,15.346,1.508,4.767,2.757,10.63,7.46,12.318.1,1.8-3.092,2.152-3.363,3.865a2.964,2.964,0,0,0,.387,1.636l4.316,9.264a10.72,10.72,0,0,1-6.236-.309C476.253,197.7,469.8,204.3,469.6,200.805Z" transform="translate(88.7 213.717)"/>
      <path id="Path_1110" data-name="Path 1110" d="M623.188,213.857a169.252,169.252,0,0,1,5.154,21.556c.928,5.463,1.469,11.532-1.662,16.093,11.931-17.949,24.391-36.438,42.52-48.022a38.822,38.822,0,0,1-10.115-29.944c.1-1.082-14.882,4.574-16.029,5.218-5.257,2.925-10.076,6.558-15.2,9.689-2.654,1.611-13.709,5.425-13.812,7.731,0,1.482,4.394,6.017,5.218,7.576a58.844,58.844,0,0,1,3.93,10.1Z" transform="translate(153.849 220.83)" fill="#c95636"/>
      <path id="Path_1111" data-name="Path 1111" d="M680.935,732.385a19.971,19.971,0,0,0-20.41-1.546c-5.837,3.015-9.767,8.723-15.075,12.589-9.122,6.623-21.17,7.151-31.851,10.733-2.835.953-5.85,2.371-7.048,5.154a9.149,9.149,0,0,0,.528,7.177,18.579,18.579,0,0,0,8.839,9.11c4.793,2.294,10.308,2.4,15.616,2.461l46.128.541c14.173.168,28.437.335,42.52,2.1,3.286.412,6.842.863,9.741-.747,4.716-2.577,5.257-9.1,4.9-14.47A132.8,132.8,0,0,0,725.8,725.8c-.554-1.4-1.288-3-2.848-3.26a4.639,4.639,0,0,0-3.067.979c-13.014,7.731-29.493,12.1-43.332,5.914" transform="translate(151.546 379.244)"/>
      <path id="Path_1112" data-name="Path 1112" d="M688.21,502.45c-5.154,29.931-1.791,60.687,4.007,90.49a157.773,157.773,0,0,0,4.213,17.575c2.075,6.571,4.871,12.885,6.816,19.495,4.948,16.75,4.252,34.66,3.518,52.145l-3.376,79.564c-.283,6.674-.541,13.5,1.469,19.868.812,2.577,1.8,5.8-.245,7.538a5.746,5.746,0,0,1-2.719,1.044,42.081,42.081,0,0,1-27.058-4.059l-.915-80.375c-.283-24.777-.58-49.658-4.394-74.126-3.028-19.456-8.285-38.654-8.633-58.342-.361-20.616,4.69-40.961,9.844-60.945,1.108-4.278,5.154-7.409,8.478-10.308a10.425,10.425,0,0,1,4.123-2.5C684.886,499.088,687.256,501.149,688.21,502.45Z" transform="translate(167.36 314.891)" fill="#3f3d56"/>
      <path id="Path_1113" data-name="Path 1113" d="M688.21,502.45c-5.154,29.931-1.791,60.687,4.007,90.49a157.773,157.773,0,0,0,4.213,17.575c2.075,6.571,4.871,12.885,6.816,19.495,4.948,16.75,4.252,34.66,3.518,52.145l-3.376,79.564c-.283,6.674-.541,13.5,1.469,19.868.812,2.577,1.8,5.8-.245,7.538a5.746,5.746,0,0,1-2.719,1.044,42.081,42.081,0,0,1-27.058-4.059l-.915-80.375c-.283-24.777-.58-49.658-4.394-74.126-3.028-19.456-8.285-38.654-8.633-58.342-.361-20.616,4.69-40.961,9.844-60.945,1.108-4.278,5.154-7.409,8.478-10.308a10.425,10.425,0,0,1,4.123-2.5C684.886,499.088,687.256,501.149,688.21,502.45Z" transform="translate(167.36 314.891)" fill="#3c7745" opacity="0.685"/>
      <path id="Path_1114" data-name="Path 1114" d="M607.115,432c-1.907,7.847,2.139,15.977,1.688,24.043-.258,4.883-2.178,9.754-1.289,14.547s4.316,8.4,6.146,12.795a34.713,34.713,0,0,1,2.087,11.442c.528,9.638.1,19.327-.258,28.926-.606,16.106-1.057,32.3,1.069,48.266a151,151,0,0,0,11.171,40.136,69.582,69.582,0,0,1,4.162,10.81,77.149,77.149,0,0,1,1.417,10.488,106.562,106.562,0,0,0,9.11,33.127c3.286,7.177,9.019,12.885,10.836,20.5,1.727,7.293.567,14.985,1.817,22.368.915,5.476,3.144,10.656,4.381,16.067,1.611,7,1.572,14.251,2.384,21.389,2.319,20.616,11.687,41.231,6.094,61.229-1.121,4.02-2.86,8.1-2.074,12.2.387,2.01,1.366,3.994.928,5.991-.361,1.7-1.675,3.015-2.345,4.626-1.289,3.015.077,6.6,2.371,8.929a25.372,25.372,0,0,0,8.375,4.948c9.5,4.059,19.327,8.182,29.635,8.092a7.964,7.964,0,0,0,3.646-.67c1.855-.966,2.77-3.067,3.556-5l5.283-13.065c.644-1.585,1.288-3.44.4-4.909a9.146,9.146,0,0,0-2.216-2.062c-4.265-3.595-3.3-10.308-2.165-15.707a229.187,229.187,0,0,0,4.793-42.133c.567-28.243-4.084-56.32-8.723-84.189-1.611-9.677-3.234-19.417-6.442-28.695s-7.937-18.206-7.164-27.844c.825-10.411-1.881-21.324,0-31.594s4.858-20.319,6.777-30.576c2.487-13.31,3.105-26.878,3.865-40.381.322-5.515.734-11.21,3.311-16.106,1.508-2.86,3.7-5.309,5.386-8.079,4.355-7.2,5.051-16.132,9.213-23.45,1.971-3.466,4.69-6.52,6.133-10.231a28.594,28.594,0,0,0,1.572-9.1,108.23,108.23,0,0,0-1.288-23.257,151.333,151.333,0,0,0-70.867-16.441c-9.419.155-18.941,1.108-27.78,4.368C623.685,426.933,616.006,431.326,607.115,432Z" transform="translate(151.703 291.801)" fill="#3c7745"/>
      <path id="Path_1115" data-name="Path 1115" d="M662.707,746.978c-3.788,4.716-3.53,11.455-5.953,17.008-2.938,6.739-9.483,11.055-15.694,14.985l-38.654,24.481c-2.113,1.288-4.381,2.873-5.154,5.27a8.453,8.453,0,0,0,.193,4.626,20.074,20.074,0,0,0,13.5,13.709,39.941,39.941,0,0,0,10.45,1.069l17.382.232a101.8,101.8,0,0,0,15.861-.618c4.819-.7,9.509-2.075,14.3-2.951,8.723-1.585,17.691-1.443,26.427-2.976a139.758,139.758,0,0,0,15.823-4.084c6.314-1.894,12.743-3.865,18.155-7.615a9.42,9.42,0,0,0,3.492-3.762c.915-2.126.412-4.561-.1-6.816l-8.3-36.464a21.734,21.734,0,0,0-3.247-8.517c-1.843-2.448-5.154-4.072-8.027-3.028a17.014,17.014,0,0,0-3.337,2.01c-4.252,2.8-9.7,3.26-14.727,2.384-3.247-.58-7.538-1.469-10.153-3.621-1.984-1.636-2.577-4.175-4.265-6.03a12.1,12.1,0,0,0-17.974.708Z" transform="translate(148.938 385.035)"/>
      <circle id="Ellipse_251" data-name="Ellipse 251" cx="46.553" cy="46.553" r="46.553" transform="translate(740.032 336.557)" fill="#c95636"/>
      <path id="Path_1116" data-name="Path 1116" d="M601,183.856c4.458-2.5,4.458-9.7,9.019-12.1s9.741,1.765,12.666,5.966a54.876,54.876,0,0,1,8.7,20.448c.412,2.087.8,4.368,2.371,5.824s3.633,1.636,5.644,1.843q8.826.876,17.678,1.6c6.571.528,13.5.953,19.469-1.868a14.173,14.173,0,0,0,5.85-4.845,21.8,21.8,0,0,0,2.5-6.546c3.079-11.712,6.185-23.566,6.442-35.678.1-5-.335-10.179-2.744-14.56-1.4-2.577-3.466-4.819-4.046-7.654s1.288-6.442,4.226-6.133a17.343,17.343,0,0,1-7.731-1.469c-2.332-1.288-4.059-4.059-3.234-6.584-6.545.838-11.313-5.631-16.415-9.818a4.445,4.445,0,0,0-3.118-1.288,11.248,11.248,0,0,0-2.577.992c-2.577.9-5.27-.812-7.911-1.559-7.087-1.984-16.093,2.809-21.35-2.345.5,3.286-3.53,5.489-6.855,5.424s-6.752-1.288-9.9-.18A6.442,6.442,0,0,1,606,122.55l1.559,3.4a8.787,8.787,0,0,0-6.764,6.339c-1.714,6.765-1.289,16.377-.876,23.334C600.129,158.679,603.105,182.709,601,183.856Z" transform="translate(149.67 201.984)"/>
      <path id="Path_1117" data-name="Path 1117" d="M642.423,216.865c-23.386,26.3-29.339,63.316-34.325,98.169L600.754,366.5c-1.907,13.349-3.865,26.7-5.528,40.085-1.16,9.161-2.242,18.464-.979,27.612.992,7.215,3.4,14.173,5.412,21.118a199.146,199.146,0,0,1,7.731,56.036c1.559-4.587,6.958-6.442,11.7-7.473a189.175,189.175,0,0,1,118.36,12.64c6.507-18.232,5.283-38.178,7.1-57.453,2.577-27.483,11.455-54.116,14.083-81.548.966-10.218,1.082-20.487,1.185-30.756.077-7.538.155-15.153-1.417-22.536-1.752-8.169-5.45-15.784-9.277-23.193a604.409,604.409,0,0,0-35.2-59.811q-9.715-14.534-20.268-28.488-5.347-7.074-10.913-13.993c-3.595-4.471-5.154-8.349-10.862-5.669C661.093,198.118,650.27,208.039,642.423,216.865Z" transform="translate(147.976 226.248)" fill="#ff8e28"/>
      <path id="Path_1118" data-name="Path 1118" d="M650.011,383.333a126.277,126.277,0,0,1-17.1-.541c-4.213-.412-8.517-1.031-12.627,0a13.141,13.141,0,0,0-4.909,2.409,3.7,3.7,0,0,0,2.1,6.442l4.407.387c2.8.245,5.708.528,7.885,2.577a4.922,4.922,0,0,1,1.6,3.105c.271,3-2.332,4.639-4.664,5.888a36.965,36.965,0,0,0-9.1,6.056,12.6,12.6,0,0,0-3.775,7.731,1.495,1.495,0,0,0,2.191,1.379c5.154-2.577,8.517-10.218,14.173-8.942a22.961,22.961,0,0,0-12.447,9.573,5.772,5.772,0,0,0,7.731,8.156,25.475,25.475,0,0,0,2.422-1.61,59.541,59.541,0,0,0,10.218-10.617c-4.123,8.7-8.3,18.876-3.556,27.522a2.744,2.744,0,0,0,2.577,1.52c1.495-.155,1.933-1.559,2.177-2.8.773-3.981.966-8.182,2.925-11.725,4.536-8.221,15.719-9.019,24.236-13.026,10.218-4.742,17.214-14.946,20.036-25.847a19.868,19.868,0,0,0,.5-9.818c-1.894-7.331-10.939-9.019-16.75-5.476C663.14,380.2,659,383.05,650.011,383.333Z" transform="translate(153.788 278.668)" fill="#c95636"/>
      <path id="Path_1119" data-name="Path 1119" d="M636.46,283.2c9.019,13.928,24.674,21.775,38.1,31.555a31.942,31.942,0,0,1,8.427,8.014c3.389,5.231,3.865,11.88,3.17,18.039-.876,8.13-3.492,15.951-6.082,23.708l-5.631,16.815c-3.569,10.669-7.254,21.556-14.044,30.524-1.739,2.281-3.762,4.716-3.685,7.576a9.794,9.794,0,0,0,1.649,4.613,31.027,31.027,0,0,0,19.7,14.07,15.025,15.025,0,0,0,7.409,0c3.479-1.031,6.094-3.865,8.517-6.545,11.6-12.795,23.193-25.77,31.568-40.78,8.182-14.65,13.078-30.924,17.588-47.042a99.035,99.035,0,0,0,3.865-18.206c.953-11.6-2.087-23.193-7.061-33.668s-11.815-19.959-18.863-29.171a203.026,203.026,0,0,0-22.1-25.357c-14.019-13.1-31.168-20.809-49.929-13.374-13.246,5.257-18.206,16.222-19.392,30.266A46.05,46.05,0,0,0,636.46,283.2Z" transform="translate(158.293 234.58)" opacity="0.1"/>
      <path id="Path_1120" data-name="Path 1120" d="M640.113,280.431c9.019,13.928,24.687,21.775,38.1,31.555a32.043,32.043,0,0,1,8.388,8.066c3.389,5.231,3.866,11.867,3.17,18.039-.889,8.13-3.492,15.951-6.094,23.708l-5.631,16.75c-3.569,10.669-7.254,21.543-14.044,30.524-1.727,2.281-3.749,4.7-3.672,7.576a9.561,9.561,0,0,0,1.649,4.6,31.014,31.014,0,0,0,19.688,14.083,15.075,15.075,0,0,0,7.422,0c3.479-1.018,6.082-3.865,8.517-6.533,11.6-12.807,23.193-25.77,31.568-40.78,8.182-14.65,13.078-30.924,17.588-47.055a98.037,98.037,0,0,0,3.865-18.193c.954-11.6-2.087-23.193-7.048-33.681s-11.815-19.959-18.863-29.171A203.132,203.132,0,0,0,702.565,234.7c-14.006-13.091-31.155-20.809-49.916-13.362-13.258,5.257-18.206,16.209-19.4,30.266a46.089,46.089,0,0,0,6.868,28.823Z" transform="translate(159.331 233.82)" fill="#ff8e28"/>
      <g id="Group_47" data-name="Group 47" transform="translate(989.642 729.775)">
        <path id="Path_1127" data-name="Path 1127" d="M2.681,274.3H198.239V291.18h-3.492V444.25H174.958V291.18H24.8V444.25H5.009V291.18H2.681Z" transform="translate(-2.681 -106.68)" fill="#e8cfbe"/>
        <path id="Path_1150" data-name="Path 1150" d="M354.087,452.482a1.745,1.745,0,0,0-.764-1.2l-61.429-40.553a4.6,4.6,0,0,0,2.2-1.931h0a4.67,4.67,0,0,0-1.7-6.361l-5.04-2.91a4.669,4.669,0,0,0-6.36,1.7,4.585,4.585,0,0,0-.59,1.912l-44.342-29.274a26.842,26.842,0,0,0-16.611-15.314V345.651h-16.3v12.907a26.781,26.781,0,0,0-18.625,25.506v3.492h16.3a10.476,10.476,0,1,0,20.953,0h16.3v-3.492a26.911,26.911,0,0,0-.471-4.989L349.78,453.131l-46.6,56.654c-.362,0-.722,0-1.086,0-3.718,0-7.32.088-10.753.239a4.6,4.6,0,0,0,.266-1.8,4.67,4.67,0,0,0-4.892-4.408l-5.812.3a4.67,4.67,0,0,0-4.408,4.892,4.578,4.578,0,0,0,.631,2.063c-10.277,1.092-16.938,2.6-16.938,3.364,0,1.255,17.883.06,40.267,0a1.74,1.74,0,0,0,2.987.524l.431-.524c22.317.062,40.126,1.25,40.126,0,0-1.181-15.833-4.119-36.348-4.59l46.056-55.995A1.747,1.747,0,0,0,354.087,452.482Z" transform="translate(-155.428 -345.65)" fill="#e8cfbe"/>
        <path id="Path_1151" data-name="Path 1151" d="M336.674,498.823v-79.6c0-2.363-3.655-4.286-8.148-4.286s-8.148,1.923-8.148,4.286v79.6c0,2.363,3.655,4.286,8.148,4.286S336.674,501.186,336.674,498.823Z" transform="translate(-296.127 -334.285)" fill="#e8cfbe"/>
        <path id="Path_1152" data-name="Path 1152" d="M319.924,498.823v-79.6c0-2.363-3.655-4.286-8.148-4.286s-8.148,1.923-8.148,4.286v79.6c0,2.363,3.655,4.286,8.148,4.286S319.924,501.186,319.924,498.823Z" transform="translate(-259.879 -334.285)" fill="#e8cfbe"/>
        <path id="Path_1153" data-name="Path 1153" d="M303.174,498.823v-79.6c0-2.363-3.655-4.286-8.148-4.286s-8.148,1.923-8.148,4.286v79.6c0,2.363,3.655,4.286,8.148,4.286S303.174,501.186,303.174,498.823Z" transform="translate(-223.632 -334.285)" fill="#e8cfbe"/>
      </g>
      <rect id="Rectangle_89" data-name="Rectangle 89" width="1500" height="1500" opacity="0"/>
      <circle id="Ellipse_281" data-name="Ellipse 281" cx="4" cy="4" r="4" transform="translate(526 413)"/>
      <circle id="Ellipse_282" data-name="Ellipse 282" cx="4" cy="4" r="4" transform="translate(545 413)"/>
    </g>
  </g>
</svg>
