<svg xmlns="http://www.w3.org/2000/svg" xmlns:xlink="http://www.w3.org/1999/xlink" width="1500" height="1500" viewBox="0 0 1500 1500">
  <defs>
    <clipPath id="clip-undraw_progress_tracking_re_ulfg">
      <rect width="1500" height="1500"/>
    </clipPath>
  </defs>
  <g id="undraw_progress_tracking_re_ulfg" clip-path="url(#clip-undraw_progress_tracking_re_ulfg)">
    <rect width="1500" height="1500" fill="#fff"/>
    <g id="undraw_progress_tracking_re_ulfg-2" data-name="undraw_progress_tracking_re_ulfg">
      <g id="Group_46" data-name="Group 46">
        <g id="Group_45" data-name="Group 45">
          <path id="Path_991" data-name="Path 991" d="M1416.358,1085.5H407.925a17.111,17.111,0,0,1-17.092-17.092V447.392A17.111,17.111,0,0,1,407.925,430.3H1416.358a17.111,17.111,0,0,1,17.092,17.092V1068.4a17.111,17.111,0,0,1-17.092,17.092ZM407.925,434.1a13.309,13.309,0,0,0-13.294,13.294V1068.4a13.309,13.309,0,0,0,13.294,13.294H1416.358a13.31,13.31,0,0,0,13.294-13.294V447.392a13.31,13.31,0,0,0-13.294-13.294Z" transform="translate(-37.684 282.082)" fill="#e8cfbe"/>
          <path id="Path_992" data-name="Path 992" d="M909.511,735.276H829.748A4.753,4.753,0,0,1,825,730.529V688.748A4.753,4.753,0,0,1,829.748,684H887.2a2.849,2.849,0,0,1,0,5.7h-53.65a2.852,2.852,0,0,0-2.849,2.849V726.73a2.852,2.852,0,0,0,2.849,2.849h72.167a2.852,2.852,0,0,0,2.849-2.849V708.622a2.849,2.849,0,0,1,5.7,0v21.907a4.753,4.753,0,0,1-4.748,4.748Z" transform="translate(352.686 510.189)" fill="#e8cfbe"/>
          <path id="Path_993" data-name="Path 993" d="M1089.795,498.392H476.379a8.546,8.546,0,1,1,0-17.092h613.416a8.546,8.546,0,1,1,0,17.092Z" transform="translate(31.549 327.938)" fill="#f8eee7"/>
          <path id="Path_994" data-name="Path 994" d="M1089.795,535.392H476.379a8.546,8.546,0,1,1,0-17.092h613.416a8.546,8.546,0,1,1,0,17.092Z" transform="translate(31.549 361.205)" fill="#f8eee7"/>
          <path id="Path_995" data-name="Path 995" d="M1089.795,572.392H476.379a8.546,8.546,0,1,1,0-17.092h613.416a8.546,8.546,0,1,1,0,17.092Z" transform="translate(31.549 394.473)" fill="#f8eee7"/>
          <path id="Path_996" data-name="Path 996" d="M1089.795,609.392H476.379a8.546,8.546,0,1,1,0-17.092h613.416a8.546,8.546,0,1,1,0,17.092Z" transform="translate(31.549 427.74)" fill="#f8eee7"/>
          <path id="Path_997" data-name="Path 997" d="M1089.795,646.392H476.379a8.546,8.546,0,1,1,0-17.092h613.416a8.546,8.546,0,1,1,0,17.092Z" transform="translate(31.549 461.006)" fill="#f8eee7"/>
          <circle id="Ellipse_230" data-name="Ellipse 230" cx="24.689" cy="24.689" r="24.689" transform="translate(1199.207 793.093)" fill="#ff8e28"/>
          <circle id="Ellipse_231" data-name="Ellipse 231" cx="24.689" cy="24.689" r="24.689" transform="translate(1199.207 863.36)" fill="#e8cfbe"/>
          <circle id="Ellipse_232" data-name="Ellipse 232" cx="24.689" cy="24.689" r="24.689" transform="translate(1199.207 933.628)" fill="#ff8e28"/>
          <circle id="Ellipse_233" data-name="Ellipse 233" cx="24.689" cy="24.689" r="24.689" transform="translate(1199.207 1003.896)" fill="#f2f2f2"/>
          <circle id="Ellipse_234" data-name="Ellipse 234" cx="24.689" cy="24.689" r="24.689" transform="translate(1199.207 1074.163)" fill="#f2f2f2"/>
          <path id="Path_998" data-name="Path 998" d="M859.153,732.491a5.312,5.312,0,0,1-3.768-1.558l-16.844-16.843a2.85,2.85,0,0,1,0-4.028,2.919,2.919,0,0,1,4.029,0l15.912,15.912a.969.969,0,0,0,1.342,0l52.947-52.945a2.918,2.918,0,0,1,4.028,0,2.849,2.849,0,0,1,0,4.028l-53.877,53.876A5.314,5.314,0,0,1,859.153,732.491Z" transform="translate(364.111 499.6)" fill="#ff8e28"/>
          <ellipse id="Ellipse_235" data-name="Ellipse 235" cx="131.039" cy="7.596" rx="131.039" ry="7.596" transform="translate(1092.225 1264.456)" fill="#f8eee7" opacity="0.998" style="isolation: isolate"/>
          <path id="Path_999" data-name="Path 999" d="M411.628,414.129H268.676a8.518,8.518,0,0,1-8.509-8.509V330.741a8.518,8.518,0,0,1,8.509-8.509H371.635a5.105,5.105,0,1,1,0,10.211H275.483a5.111,5.111,0,0,0-5.105,5.105v61.265a5.111,5.111,0,0,0,5.105,5.105H404.82a5.111,5.111,0,0,0,5.105-5.105V366.359a5.105,5.105,0,0,1,10.211,0V405.62a8.518,8.518,0,0,1-8.509,8.509Z" transform="translate(-155.168 184.916)" fill="#e8cfbe"/>
          <path id="Path_1000" data-name="Path 1000" d="M321.377,409.138a9.518,9.518,0,0,1-6.752-2.792l-30.189-30.187a5.108,5.108,0,0,1,0-7.219,5.231,5.231,0,0,1,7.221,0l28.517,28.518a1.737,1.737,0,0,0,2.4,0l94.892-94.889a5.229,5.229,0,0,1,7.219,0,5.106,5.106,0,0,1,0,7.219l-96.557,96.557A9.525,9.525,0,0,1,321.377,409.138Z" transform="translate(-134.691 165.936)" fill="#918b87"/>
          <rect id="Rectangle_175" data-name="Rectangle 175" width="188.013" height="55.075" rx="4" transform="translate(556.588 721.95) rotate(180)" fill="#2f2e41"/>
          <path id="Path_1001" data-name="Path 1001" d="M621.429,405.338H359.35a11.394,11.394,0,0,0-11.395,11.4V597.149a11.4,11.4,0,0,0,11.394,11.395h32.285A11.4,11.4,0,0,0,403.03,597.15V460.413h41.781V599.048a11.4,11.4,0,0,0,11.394,11.395h32.285a11.4,11.4,0,0,0,11.395-11.395V460.413H621.429a11.4,11.4,0,0,0,11.395-11.395V416.733a11.394,11.394,0,0,0-11.4-11.395Z" transform="translate(-76.236 259.639)" fill="#2f2e41"/>
          <path id="Path_1002" data-name="Path 1002" d="M649.8,574.867l-249.073-5.244a11.395,11.395,0,0,1-10.869-13.93L450.5,290.2a11.4,11.4,0,0,1,11.109-8.857h65.217a93.351,93.351,0,0,1,91.374,74.24l42.993,205.563A11.395,11.395,0,0,1,649.8,574.867Z" transform="translate(-38.82 148.146)" fill="#ff8e28"/>
          <circle id="Ellipse_236" data-name="Ellipse 236" cx="101.639" cy="101.639" r="101.639" transform="translate(355.092 202.535)" fill="#c95636"/>
          <path id="Path_1003" data-name="Path 1003" d="M443.034,242.142c-11.863-2.8-24.671-6.563-33.133-15.9-7.2-7.951-10.581-20.222-4.2-29.648,5.828-8.608,17.325-11.766,27-13.38,11.247-1.876,22.805-2.15,33.359-6.937a34.514,34.514,0,0,0,13.164-10.444,89.778,89.778,0,0,0,8.33-14.335,52.277,52.277,0,0,1,8.74-13.425,26.458,26.458,0,0,1,14.992-7.32c12.733-1.935,24.821,3.949,34.84,11.256a151.285,151.285,0,0,1,26.217,24.878,164.528,164.528,0,0,1,35.088,72.455c.741,3.588,6.234,2.07,5.494-1.515a169.9,169.9,0,0,0-32.035-69.363A164.331,164.331,0,0,0,554.1,141.008c-10.324-8.317-22.244-15.565-35.822-16.252a36.914,36.914,0,0,0-18.21,3.616,33.133,33.133,0,0,0-12.689,11.818c-6.4,9.7-9.484,22.242-19.806,28.805-10.455,6.648-23.546,6.714-35.406,8.564-10.549,1.645-22.293,5.12-29.435,13.592-7.9,9.371-7.6,22.141-1.7,32.475,6.556,11.483,18.736,17.75,30.968,21.486,3.141.959,6.324,1.769,9.52,2.523,3.566.841,5.087-4.651,1.515-5.494Z" transform="translate(-32.414 7.305)" fill="#e8cfbe"/>
          <path id="Path_1004" data-name="Path 1004" d="M463.568,263.836c-6.281-.176-14.1-.395-20.112-4.79a15.444,15.444,0,0,1-6.077-11.534,10.39,10.39,0,0,1,3.533-8.531c3.143-2.658,7.734-3.283,12.683-1.825l-5.126-37.463,3.763-.516,6.027,44.041-3.143-1.441c-3.645-1.673-8.644-2.52-11.752.1a6.672,6.672,0,0,0-2.189,5.5,11.675,11.675,0,0,0,4.521,8.6c4.682,3.42,10.912,3.863,17.978,4.06Z" transform="translate(4.146 74.273)" fill="#2f2e41"/>
          <rect id="Rectangle_176" data-name="Rectangle 176" width="20.456" height="3.798" transform="translate(413.549 277.197)" fill="#2f2e41"/>
          <rect id="Rectangle_177" data-name="Rectangle 177" width="20.456" height="3.798" transform="translate(478.119 277.197)" fill="#2f2e41"/>
          <path id="Path_1005" data-name="Path 1005" d="M354.361,453.19a12.36,12.36,0,0,1-11.252-7.226l-11.621-25.508a12.343,12.343,0,0,1,6.116-16.35l212.6-96.853a12.36,12.36,0,0,1,16.351,6.116l11.621,25.508a12.361,12.361,0,0,1-6.116,16.352l-212.6,96.851a12.283,12.283,0,0,1-5.1,1.109Z" transform="translate(-92.043 170.451)" fill="#c95636"/>
        </g>
        <path id="Path_1015" data-name="Path 1015" d="M239.582,654.094s-112.306-51.7-72.853-87.552S239.582,654.094,239.582,654.094Z" transform="translate(-39.109 609.127)" fill="#ff8e28"/>
        <path id="Path_1016" data-name="Path 1016" d="M237.627,666.158s-51.62-169.607,24.392-161.5S237.627,666.158,237.627,666.158Z" transform="translate(-39.109 609.127)" fill="#ff8e28"/>
        <path id="Subtraction_3" data-name="Subtraction 3" d="M21170.219,17012.256c-7.635,0-14.414-3.531-19.605-10.213a45.41,45.41,0,0,1-6.834-13.125,83.977,83.977,0,0,1-3.908-18.791h60.146a87.281,87.281,0,0,1-3.818,18.791,45.725,45.725,0,0,1-6.645,13.125,26.491,26.491,0,0,1-8.861,7.7A22.509,22.509,0,0,1,21170.219,17012.256Zm30.5-55.883h-61.545L21137,16928h65.893l-2.174,28.371Z" transform="translate(-20976.117 -15667.758)" fill="#e8cfbe"/>
      </g>
      <rect id="Rectangle_89" data-name="Rectangle 89" width="1500" height="1500" opacity="0"/>
    </g>
  </g>
</svg>
